<svg xmlns="http://www.w3.org/2000/svg" version="1.1" xmlns:xlink="http://www.w3.org/1999/xlink" xmlns:svgjs="http://svgjs.dev/svgjs" width="1440" height="560" preserveAspectRatio="none" viewBox="0 0 1440 560"><g mask="url(&quot;#SvgjsMask1002&quot;)" fill="none"><path d="M0 36.59C23.46 1.91 46.3 12.65 94.71 0C116.3 -5.64 117.36 0 140 0C167.5 0 168.46 -5.64 195 0C238.46 9.23 241.18 29.75 280 29.75C297.51 29.75 289.08 3.95 307.67 0C359.08 -10.92 363.84 0 420 0C490 0 490 0 560 0C613.23 0 628.75 -22.83 666.46 0C698.75 19.54 678.01 84.74 700 84.74C725.16 84.74 720.98 24.07 760.75 0C790.98 -18.3 800.38 0 840 0C910 0 910 0 980 0C1050 0 1050 0 1120 0C1190 0 1190 0 1260 0C1327.88 0 1333.19 -6.95 1395.76 0C1403.19 0.83 1392.81 12.77 1400 15.56C1464.93 40.77 1495.6 16.53 1540 56C1565.6 78.75 1540 98 1540 140C1540 196.54 1544.95 197.63 1540 253.08C1538.7 267.63 1527.5 265.78 1527.5 280C1527.5 311.06 1537.13 311.49 1540 343.64C1543.38 381.49 1540 381.82 1540 420C1540 490 1570.76 520.76 1540 560C1515.88 590.76 1475.65 576.59 1430.23 560C1405.65 551.02 1415.73 508.85 1400 508.85C1383.78 508.85 1391.91 550.65 1366.33 560C1321.91 576.23 1313.16 560 1260 560C1190 560 1190 560 1120 560C1054.93 560 1036.69 581.29 989.86 560C966.69 549.47 986.07 496.36 980 496.36C973.85 496.36 989.38 549.11 965.42 560C919.38 580.93 902.71 560 840 560C770 560 770 560 700 560C630 560 630 560 560 560C490 560 490 560 420 560C370.35 560 365.29 572.53 320.7 560C295.29 552.86 303.6 520.67 280 520.67C241.58 520.67 240.01 547.82 196.67 560C170.01 567.49 168.33 560 140 560C70 560 36.03 593.97 0 560C-33.97 527.97 -3.59 492.54 0 428C0.3 422.54 7.78 424.42 7.78 420C7.78 414.2 0.4 414.78 0 407.56C-3.49 344.78 0 343.78 0 280C0 210 0 210 0 140C0 88.3 -23.89 71.91 0 36.59" stroke="rgba(65, 140, 61, 0.16)" stroke-width="2"></path><path d="M560 126.17C546.24 126.17 533.95 132 533.95 140C533.95 148.91 545.64 160 560 160C583.02 160 608.7 148.62 608.7 140C608.7 131.71 583.62 126.17 560 126.17" stroke="rgba(65, 140, 61, 0.16)" stroke-width="2"></path><path d="M840 91.3C808.33 91.3 767.74 116.65 767.74 140C767.74 162.54 807.77 183.08 840 183.08C861.13 183.08 874.46 162.05 874.46 140C874.46 116.16 861.69 91.3 840 91.3" stroke="rgba(65, 140, 61, 0.16)" stroke-width="2"></path><path d="M420 225.96C397.55 225.96 380.9 247.54 374.71 280C362.4 344.56 366.58 355.38 382.99 420C389.22 444.55 399.66 458.33 420 458.33C445.46 458.33 467.49 448.72 474.58 420C489.49 359.55 482.24 344.84 464 280C454.95 247.82 442.19 225.96 420 225.96" stroke="rgba(65, 140, 61, 0.16)" stroke-width="2"></path><path d="M700 217.78C684.61 217.78 678.08 246.92 672 280C659.51 348.03 652.14 358.13 662.86 420C666.14 438.96 680.13 441.67 700 441.67C735.1 441.67 766.78 447.79 772.8 420C784.28 366.95 759.39 347.75 735 280C722.99 246.64 716.11 217.78 700 217.78" stroke="rgba(65, 140, 61, 0.16)" stroke-width="2"></path><path d="M980 277.2C978.35 277.2 976.22 277.86 976.22 280C976.22 289.26 978.57 300 980 300C981.41 300 981.89 289.76 981.89 280C981.89 278.36 981.18 277.2 980 277.2" stroke="rgba(65, 140, 61, 0.16)" stroke-width="2"></path><path d="M1260 148.24C1245.45 148.24 1234.83 215.48 1234.83 280C1234.83 310.83 1245.76 338.95 1260 338.95C1275.06 338.95 1293.43 311.72 1293.43 280C1293.43 216.37 1274.75 148.24 1260 148.24" stroke="rgba(65, 140, 61, 0.16)" stroke-width="2"></path><path d="M1120 397.47C1071.94 397.47 1022 408.27 1022 420C1022 431.78 1072.09 444.5 1120 444.5C1148.31 444.5 1174.44 431.83 1174.44 420C1174.44 408.32 1148.16 397.47 1120 397.47" stroke="rgba(65, 140, 61, 0.16)" stroke-width="2"></path><path d="M0 76.36C48.23 60.28 70.09 94.04 140 93.33C210.09 92.61 219.07 100.79 280 73.5C323.26 54.13 307.52 21.45 348.37 0C377.52 -15.3 384.18 0 420 0C490 0 490 0 560 0C595 0 630 -16.26 630 0C630 25.22 601.84 49.95 560 82.96C513.12 119.95 504.98 109.44 452.56 140C434.98 150.24 433.78 149.65 420 164.56C369.12 219.65 343.16 214.11 323.24 280C304.54 341.83 356.1 357.89 342.76 420C334.48 458.56 317.26 459.66 280 481.35C215.88 518.68 207.3 505.54 140 538.04C125.87 544.86 132.05 557.66 117.14 560C62.05 568.64 34.45 584.12 0 560C-24.12 543.12 -14.19 513.24 0 478C14 443.24 56.39 452.01 56.39 420C56.39 377.9 19.21 377.47 0 329.78C-8.99 307.47 0 304.89 0 280C0 210 0 210 0 140C0 108.18 -21.77 83.62 0 76.36" stroke="rgba(65, 140, 61, 0.16)" stroke-width="2"></path><path d="M840 15.22C834.09 7.07 826.79 4.6 826.79 0C826.79 -3.01 833.39 0 840 0C910 0 910 0 980 0C1032.97 0 1063.33 -30.15 1085.95 0C1115.83 39.85 1071.78 77.88 1085 140C1088.81 157.88 1107.77 144.5 1120 160C1163.02 214.5 1195.51 224.03 1195.51 280C1195.51 322.65 1159.53 357.24 1120 357.24C1076.37 357.24 1069.49 323.19 1029.19 280C999.49 248.17 1005.67 242.82 980 207.2C955.23 172.82 953.28 174.24 928.31 140C883.28 78.25 884.85 77.07 840 15.22" stroke="rgba(65, 140, 61, 0.16)" stroke-width="2"></path><path d="M1260 86.67C1206.55 86.67 1146.25 24.14 1146.25 0C1146.25 -19.2 1203.13 0 1260 0C1301.36 0 1342.73 -17.7 1342.73 0C1342.73 25.63 1304.79 86.67 1260 86.67" stroke="rgba(65, 140, 61, 0.16)" stroke-width="2"></path><path d="M514 280C518.47 246.19 535.9 222.5 560 222.5C585.74 222.5 608.06 244.76 613.67 280C623.78 343.51 568.55 366.11 591.43 420C611.72 467.78 641.22 469.45 700 483.33C765.51 498.8 783.08 456.04 840 478.71C879.33 494.37 892.5 533.65 892.5 560C892.5 574.3 866.25 560 840 560C770 560 770 560 700 560C630 560 630 560 560 560C490 560 490 560 420 560C390.7 560 361.4 572.34 361.4 560C361.4 542.34 387.57 526.32 420 500C473.82 456.32 510.59 474.56 533.9 420C557.59 364.56 505.42 344.94 514 280" stroke="rgba(65, 140, 61, 0.16)" stroke-width="2"></path><path d="M807.92 280C807.92 262.26 823.02 250.38 840 250.38C859.87 250.38 881.62 261.22 881.62 280C881.62 308.12 859.01 344.17 840 344.17C822.16 344.17 807.92 309.15 807.92 280" stroke="rgba(65, 140, 61, 0.16)" stroke-width="2"></path><path d="M1345.67 280C1368.2 226.02 1370.83 176 1400 176C1430.49 176 1455.39 223.45 1465 280C1476.13 345.45 1465.93 359.24 1441.48 420C1433.43 440.01 1422.21 441.54 1400 441.54C1350.56 441.54 1309.4 453.37 1298.18 420C1282.24 372.6 1317.29 348.02 1345.67 280" stroke="rgba(65, 140, 61, 0.16)" stroke-width="2"></path><path d="M1039.15 560C1039.15 539.48 1073.97 515.12 1120 488.25C1184.4 450.65 1208.1 412.62 1260 431.05C1309.11 448.49 1322.03 515.02 1322.03 560C1322.03 579.5 1291.01 560 1260 560C1190 560 1190 560 1120 560C1079.57 560 1039.15 575.35 1039.15 560" stroke="rgba(65, 140, 61, 0.16)" stroke-width="2"></path><path d="M1470 560C1470 529.1 1520.7 462.22 1540 462.22C1555.7 462.22 1560.4 531.51 1540 560C1525.4 580.4 1470 577.99 1470 560" stroke="rgba(65, 140, 61, 0.16)" stroke-width="2"></path><path d="M0 116.14C23.55 116.14 63.64 118.52 63.64 140C63.64 174.2 17.59 227.5 0 227.5C-14.23 227.5 0 183.75 0 140C0 128.07 -8.27 116.14 0 116.14" stroke="rgba(65, 140, 61, 0.16)" stroke-width="2"></path><path d="M221.29 140C221.29 117.92 250.46 117.25 280 117.25C312.31 117.25 345 116.97 345 140C345 181.88 311.32 247.06 280 247.06C249.47 247.06 221.29 182.82 221.29 140" stroke="rgba(65, 140, 61, 0.16)" stroke-width="2"></path><path d="M420 78.24C388.65 70.95 389.07 28.6 389.07 0C389.07 -10.52 404.53 0 420 0C490 0 490 0 560 0C576.77 0 593.54 -7.79 593.54 0C593.54 12.08 582.88 29.43 560 39.75C496.11 68.55 474.11 90.82 420 78.24" stroke="rgba(65, 140, 61, 0.16)" stroke-width="2"></path><path d="M980 105C972.56 105 961.74 44.82 961.74 0C961.74 -7.68 970.87 0 980 0C985.67 0 991.35 -5.09 991.35 0C991.35 47.41 987.37 105 980 105" stroke="rgba(65, 140, 61, 0.16)" stroke-width="2"></path><path d="M1260 31.11C1240.81 31.11 1219.17 8.66 1219.17 0C1219.17 -6.89 1239.59 0 1260 0C1274.85 0 1289.7 -6.35 1289.7 0C1289.7 9.2 1276.08 31.11 1260 31.11" stroke="rgba(65, 140, 61, 0.16)" stroke-width="2"></path><path d="M1076.49 280C1076.49 253.63 1099.48 222.5 1120 222.5C1139.33 222.5 1156.18 253.18 1156.18 280C1156.18 300.43 1138.94 317.01 1120 317.01C1099.1 317.01 1076.49 300.89 1076.49 280" stroke="rgba(65, 140, 61, 0.16)" stroke-width="2"></path><path d="M1397.91 280C1397.91 277.89 1398.88 276 1400 276C1401.17 276 1402.5 277.84 1402.5 280C1402.5 283.73 1401.16 287.78 1400 287.78C1398.86 287.78 1397.91 283.78 1397.91 280" stroke="rgba(65, 140, 61, 0.16)" stroke-width="2"></path><path d="M105 420C105 365.55 99.67 330.54 140 305.45C187.17 276.1 234.69 279.18 280 311.11C315.96 336.45 302.53 369 302.53 420C302.53 434.45 294.7 437.55 280 442.02C213.44 462.26 201.43 477.14 140 469.41C113.93 466.13 105 447.53 105 420" stroke="rgba(65, 140, 61, 0.16)" stroke-width="2"></path><path d="M0 528C14.52 528 45.71 551.2 45.71 560C45.71 567.2 13.44 569.41 0 560C-9.41 553.41 -8.33 528 0 528" stroke="rgba(65, 140, 61, 0.16)" stroke-width="2"></path><path d="M402.09 560C402.09 554.61 409.18 541.67 420 541.67C440.13 541.67 464 555.23 464 560C464 564.4 442 560 420 560C411.04 560 402.09 563.77 402.09 560" stroke="rgba(65, 140, 61, 0.16)" stroke-width="2"></path><path d="M634.67 560C634.67 550.7 665.84 525 700 525C751.01 525 805 551.02 805 560C805 568.52 752.5 560 700 560C667.34 560 634.67 568.2 634.67 560" stroke="rgba(65, 140, 61, 0.16)" stroke-width="2"></path><path d="M1088.45 560C1088.45 551.99 1100.17 536.26 1120 532C1185.94 517.84 1198.94 512.32 1260 523.16C1277.8 526.32 1277.72 547.15 1277.72 560C1277.72 565.57 1268.86 560 1260 560C1190 560 1190 560 1120 560C1104.22 560 1088.45 565.99 1088.45 560" stroke="rgba(65, 140, 61, 0.16)" stroke-width="2"></path><path d="M1509.77 560C1509.77 546.66 1531.66 517.78 1540 517.78C1546.78 517.78 1548.81 547.7 1540 560C1533.69 568.81 1509.77 567.77 1509.77 560" stroke="rgba(65, 140, 61, 0.16)" stroke-width="2"></path></g><defs><mask id="SvgjsMask1002"><rect width="1440" height="560" fill="#ffffff"></rect></mask></defs></svg>