<svg xmlns="http://www.w3.org/2000/svg" version="1.1" xmlns:xlink="http://www.w3.org/1999/xlink" xmlns:svgjs="http://svgjs.dev/svgjs" width="1423" height="545" preserveAspectRatio="none" viewBox="0 0 1423 545"><g mask="url(&quot;#SvgjsMask1032&quot;)" fill="none"><path d="M -536.0769362002159,481.5 C -441.08,420.5 -251.08,182.5 -61.07693620021589,176.5 C 128.92,170.5 223.92,449.9 413.92306379978413,451.5 C 603.92,453.1 698.92,199.7 888.9230637997841,184.5 C 1078.92,169.3 1257.11,378.1 1363.9230637997841,375.5 C 1470.74,372.9 1411.18,212.3 1423,171.5" stroke="rgba(65, 140, 61, 1)" stroke-width="2"></path><path d="M -346.325123037475,211.5 C -251.33,262.7 -61.33,497.1 128.674876962525,467.5 C 318.67,437.9 413.67,87.5 603.674876962525,63.5 C 793.67,39.5 888.67,312.9 1078.674876962525,347.5 C 1268.67,382.1 1484.81,222.3 1553.674876962525,236.5 C 1622.54,250.7 1449.13,382.1 1423,418.5" stroke="rgba(65, 140, 61, 1)" stroke-width="2"></path><path d="M -92.81814085497194,379.5 C 2.18,334.7 192.18,169.5 382.18185914502806,155.5 C 572.18,141.5 667.18,291.5 857.181859145028,309.5 C 1047.18,327.5 1142.18,252.5 1332.181859145028,245.5 C 1522.18,238.5 1789.02,305.9 1807.181859145028,274.5 C 1825.35,243.1 1499.84,125.7 1423,88.5" stroke="rgba(65, 140, 61, 1)" stroke-width="2"></path></g><defs><mask id="SvgjsMask1032"><rect width="1423" height="545" fill="#ffffff"></rect></mask></defs></svg>