<?xml version="1.0" standalone="no"?><svg xmlns="http://www.w3.org/2000/svg" viewBox="0 0 1440 320"><path fill="#418c3d" fill-opacity="0.5" d="M0,288L30,256C60,224,120,160,180,149.3C240,139,300,181,360,176C420,171,480,117,540,90.7C600,64,660,64,720,80C780,96,840,128,900,160C960,192,1020,224,1080,224C1140,224,1200,192,1260,170.7C1320,149,1380,139,1410,133.3L1440,128L1440,0L1410,0C1380,0,1320,0,1260,0C1200,0,1140,0,1080,0C1020,0,960,0,900,0C840,0,780,0,720,0C660,0,600,0,540,0C480,0,420,0,360,0C300,0,240,0,180,0C120,0,60,0,30,0L0,0Z"></path></svg>