<?xml version="1.0" standalone="no"?><svg xmlns="http://www.w3.org/2000/svg" viewBox="0 0 1440 320"><path fill="#418c3d" fill-opacity="0.5" d="M0,160L30,181.3C60,203,120,245,180,224C240,203,300,117,360,74.7C420,32,480,32,540,32C600,32,660,32,720,32C780,32,840,32,900,69.3C960,107,1020,181,1080,186.7C1140,192,1200,128,1260,85.3C1320,43,1380,21,1410,10.7L1440,0L1440,320L1410,320C1380,320,1320,320,1260,320C1200,320,1140,320,1080,320C1020,320,960,320,900,320C840,320,780,320,720,320C660,320,600,320,540,320C480,320,420,320,360,320C300,320,240,320,180,320C120,320,60,320,30,320L0,320Z"></path></svg>